<svg xmlns="http://www.w3.org/2000/svg" viewBox="0 0 21 24" fill="none">
  <path d="M12.0919 1.46037L10.889 0.197509C10.6377 -0.0658363 10.2188 -0.0658363 9.96747 0.197509L8.76463 1.46037C8.52526 1.70576 8.13628 1.72371 7.87896 1.49628L6.97533 0.682303C6.56242 0.311226 5.91013 0.610482 5.91612 1.16111L5.94604 5.06939C5.94604 5.1053 5.97596 5.13523 6.01187 5.13523H14.8506C14.8865 5.13523 14.9165 5.1053 14.9165 5.06939L14.9464 1.16111C14.9464 0.610482 14.3001 0.311226 13.8872 0.682303L12.9835 1.49628C12.7262 1.72371 12.3372 1.71174 12.0979 1.46037H12.0919Z" fill="#fff"/>
  <path d="M11.3741 13.8193H19.7281C20.0812 13.8193 20.3505 13.52 20.3265 13.1669C19.9675 7.47507 14.9287 3.05806 9.01628 3.71044C4.34855 4.22516 0.578465 7.99578 0.0638176 12.6642C-0.612405 18.8049 4.17501 24 10.1712 24C10.3927 24 10.6081 23.994 10.8235 23.976C11.1347 23.9521 11.3681 23.6887 11.3681 23.3775V13.8253L11.3741 13.8193Z" fill="#fff"/>
  <path d="M11.656 5.28522C11.5063 5.26727 11.3747 5.39295 11.3747 5.54258V12.21C11.3747 12.3536 11.4884 12.4674 11.632 12.4674H18.2985C18.4481 12.4674 18.5738 12.3357 18.5558 12.1861C18.1848 8.55309 15.2884 5.66228 11.656 5.28522Z" fill="#fff"/>
  <path d="M9.30894 5.28467C7.44783 5.42233 5.98169 6.97846 5.98169 8.87574C5.98169 10.773 7.44783 12.3291 9.30894 12.4668C9.45256 12.4788 9.57823 12.3531 9.57823 12.2094V5.54801C9.57823 5.39839 9.45256 5.27868 9.30894 5.29065V5.28467ZM8.08217 9.7735C7.58547 9.7735 7.18453 9.3725 7.18453 8.87574C7.18453 8.37897 7.58547 7.97797 8.08217 7.97797C8.57886 7.97797 8.97981 8.37897 8.97981 8.87574C8.97981 9.3725 8.57886 9.7735 8.08217 9.7735Z" fill="#6100FF"/>
</svg>