<svg xmlns="http://www.w3.org/2000/svg" width="124" height="24" viewBox="0 0 124 24" fill="none">
  <path d="M12.0919 1.46037L10.889 0.197509C10.6377 -0.0658363 10.2188 -0.0658363 9.96747 0.197509L8.76463 1.46037C8.52526 1.70576 8.13628 1.72371 7.87896 1.49628L6.97533 0.682303C6.56242 0.311226 5.91013 0.610482 5.91612 1.16111L5.94604 5.06939C5.94604 5.1053 5.97596 5.13523 6.01187 5.13523H14.8506C14.8865 5.13523 14.9165 5.1053 14.9165 5.06939L14.9464 1.16111C14.9464 0.610482 14.3001 0.311226 13.8872 0.682303L12.9835 1.49628C12.7262 1.72371 12.3372 1.71174 12.0979 1.46037H12.0919Z" fill="#FFBE00"/>
  <path d="M11.3741 13.8193H19.7281C20.0812 13.8193 20.3505 13.52 20.3265 13.1669C19.9675 7.47507 14.9287 3.05806 9.01628 3.71044C4.34855 4.22516 0.578465 7.99578 0.0638176 12.6642C-0.612405 18.8049 4.17501 24 10.1712 24C10.3927 24 10.6081 23.994 10.8235 23.976C11.1347 23.9521 11.3681 23.6887 11.3681 23.3775V13.8253L11.3741 13.8193Z" fill="#6100FF"/>
  <path d="M11.656 5.28522C11.5063 5.26727 11.3747 5.39295 11.3747 5.54258V12.21C11.3747 12.3536 11.4884 12.4674 11.632 12.4674H18.2985C18.4481 12.4674 18.5738 12.3357 18.5558 12.1861C18.1848 8.55309 15.2884 5.66228 11.656 5.28522Z" fill="#FFBE00"/>
  <path d="M9.30894 5.28467C7.44783 5.42233 5.98169 6.97846 5.98169 8.87574C5.98169 10.773 7.44783 12.3291 9.30894 12.4668C9.45256 12.4788 9.57823 12.3531 9.57823 12.2094V5.54801C9.57823 5.39839 9.45256 5.27868 9.30894 5.29065V5.28467ZM8.08217 9.7735C7.58547 9.7735 7.18453 9.3725 7.18453 8.87574C7.18453 8.37897 7.58547 7.97797 8.08217 7.97797C8.57886 7.97797 8.97981 8.37897 8.97981 8.87574C8.97981 9.3725 8.57886 9.7735 8.08217 9.7735Z" fill="white"/>
  <path d="M39.1053 13.465C38.7129 13.1071 38.205 12.7839 37.5702 12.5068C36.9585 12.2413 36.1967 11.9989 35.2964 11.8026C34.7885 11.6872 34.3384 11.5718 33.9344 11.4448C33.5651 11.3293 33.265 11.2024 33.0226 11.0523C32.8033 10.9138 32.6417 10.7637 32.5378 10.6021C32.4455 10.452 32.3877 10.2558 32.3877 10.0133V9.70165C32.3877 9.28607 32.584 8.9513 32.9995 8.63961C33.4496 8.30484 34.0729 8.14322 34.8578 8.14322C35.458 8.14322 36.0236 8.21248 36.5083 8.36255C36.9931 8.50108 37.4894 8.7435 37.9742 9.06673C38.0781 9.136 38.205 9.15908 38.332 9.13599C38.459 9.11291 38.5629 9.0321 38.6321 8.92821L39.5555 7.41596C39.6825 7.20816 39.6247 6.93111 39.417 6.79258C38.7822 6.36546 38.0781 6.03069 37.3278 5.81135C35.8735 5.38423 33.8998 5.3496 32.5609 5.83444C31.903 6.06532 31.3374 6.38855 30.8873 6.78104C30.4371 7.17353 30.0908 7.63529 29.86 8.15476C29.6407 8.6627 29.5253 9.19371 29.5253 9.73628V10.0941C29.5253 10.8099 29.6638 11.4332 29.9408 11.9412C30.2178 12.4376 30.5987 12.8647 31.0719 13.1994C31.5221 13.5227 32.0646 13.7882 32.6878 13.9844C33.265 14.1807 33.9113 14.3538 34.6039 14.5039C35.1463 14.6193 35.608 14.7463 35.9889 14.8849C36.3352 15.0234 36.6238 15.1619 36.8431 15.3235C37.0277 15.4621 37.1547 15.6121 37.224 15.7622C37.3048 15.9354 37.3394 16.1547 37.3394 16.3971V16.7088C37.3394 17.1244 37.1432 17.4822 36.7507 17.8055C36.3352 18.1402 35.6658 18.3134 34.777 18.3134C34.5115 18.3134 34.2114 18.2788 33.8882 18.2095C33.5535 18.1402 33.2072 18.0363 32.8841 17.9094C32.5493 17.7824 32.2146 17.6323 31.8914 17.4476C31.5798 17.2744 31.2912 17.1013 31.0488 16.9166C30.945 16.8358 30.8065 16.8127 30.691 16.8358C30.5641 16.8589 30.4486 16.9397 30.3794 17.0436L29.3983 18.6366C29.2713 18.8329 29.3175 19.0984 29.5022 19.2369C30.1255 19.7333 30.8873 20.1604 31.776 20.4952C32.6648 20.83 33.6574 21.0031 34.7193 21.0031C35.4695 21.0031 36.1852 20.9108 36.8431 20.7376C37.5241 20.5645 38.1127 20.2874 38.5975 19.918C39.0938 19.5486 39.4862 19.0753 39.7748 18.5327C40.0634 17.9902 40.2134 17.3322 40.2134 16.6049V16.247C40.2134 15.716 40.1326 15.2081 39.9595 14.7463C39.7863 14.273 39.4862 13.8459 39.0823 13.465H39.1053Z" fill="#6100FF"/>
  <path d="M46.3423 8.9046C45.6266 8.9046 44.9457 9.02004 44.3339 9.25092C43.7106 9.4818 43.1566 9.82811 42.7065 10.2899C42.2448 10.7516 41.887 11.3173 41.633 11.9984C41.3906 12.6679 41.2637 13.4414 41.2637 14.2956V15.5077C41.2637 16.4197 41.3906 17.2393 41.6561 17.9088C41.9216 18.6015 42.3025 19.1787 42.7757 19.6173C43.2489 20.056 43.803 20.3908 44.4378 20.5986C45.0495 20.8064 45.719 20.9103 46.4346 20.9103C47.4619 20.9103 48.3391 20.7833 49.0432 20.5409C49.7357 20.2984 50.3359 19.9983 50.8438 19.652C51.04 19.5134 51.0977 19.2595 50.9823 19.0517L50.1743 17.6202C50.1166 17.5048 50.0012 17.424 49.8857 17.4009C49.7588 17.3663 49.6318 17.4009 49.5279 17.4586C49.1009 17.7357 48.6507 17.955 48.189 18.1166C47.7389 18.2667 47.1733 18.3475 46.5269 18.3475C45.7882 18.3475 45.1996 18.1282 44.7494 17.6895C44.3801 17.3201 44.1608 16.8006 44.1031 16.0734H50.8438C51.0977 16.0734 51.3054 15.8656 51.3054 15.6116V14.1802C51.3054 12.5294 50.8553 11.2249 49.955 10.3014C49.0547 9.3779 47.8428 8.9046 46.3423 8.9046ZM46.3423 11.4558C47.0463 11.4558 47.5658 11.652 47.9466 12.0445C48.316 12.4255 48.5007 12.9334 48.5238 13.5914H44.08C44.1031 13.3144 44.1492 13.0604 44.2531 12.818C44.3685 12.5294 44.5186 12.287 44.7148 12.0907C44.911 11.8945 45.1534 11.7329 45.4304 11.6174C45.7074 11.502 46.0191 11.4443 46.3423 11.4443V11.4558Z" fill="#6100FF"/>
  <path d="M55.219 5.00293H53.3145C53.0595 5.00293 52.8528 5.20967 52.8528 5.46469V20.2986C52.8528 20.5536 53.0595 20.7604 53.3145 20.7604H55.219C55.474 20.7604 55.6807 20.5536 55.6807 20.2986V5.46469C55.6807 5.20967 55.474 5.00293 55.219 5.00293Z" fill="#6100FF"/>
  <path d="M60.1813 5.00293H58.2769C58.0219 5.00293 57.8152 5.20967 57.8152 5.46469V20.2986C57.8152 20.5536 58.0219 20.7604 58.2769 20.7604H60.1813C60.4363 20.7604 60.643 20.5536 60.643 20.2986V5.46469C60.643 5.20967 60.4363 5.00293 60.1813 5.00293Z" fill="#6100FF"/>
  <path d="M67.3028 8.9046C66.5872 8.9046 65.9062 9.02004 65.2944 9.25092C64.6711 9.4818 64.1171 9.82811 63.667 10.2899C63.2053 10.7516 62.8475 11.3173 62.5935 11.9984C62.3511 12.6679 62.2242 13.4414 62.2242 14.2956V15.5077C62.2242 16.4197 62.3511 17.2393 62.6166 17.9088C62.8821 18.6015 63.263 19.1787 63.7362 19.6173C64.2095 20.056 64.7635 20.3908 65.3983 20.5986C66.01 20.8064 66.6795 20.9103 67.3951 20.9103C68.4224 20.9103 69.2996 20.7833 70.0037 20.5409C70.6962 20.2984 71.2964 19.9983 71.8043 19.652C72.0005 19.5134 72.0582 19.2595 71.9428 19.0517L71.1348 17.6202C71.0771 17.5048 70.9617 17.424 70.8463 17.4009C70.7193 17.3663 70.5923 17.4009 70.4884 17.4586C70.0614 17.7357 69.6112 17.955 69.1495 18.1166C68.6994 18.2667 68.1338 18.3475 67.4875 18.3475C66.7488 18.3475 66.1601 18.1282 65.7099 17.6895C65.3406 17.3201 65.1213 16.8006 65.0636 16.0734H71.8043C72.0582 16.0734 72.266 15.8656 72.266 15.6116V14.1802C72.266 12.5294 71.8158 11.2249 70.9155 10.3014C70.0152 9.3779 68.8033 8.9046 67.3028 8.9046ZM67.3028 11.4558C68.0069 11.4558 68.5263 11.652 68.9072 12.0445C69.2765 12.4255 69.4612 12.9334 69.4843 13.5914H65.0405C65.0636 13.3144 65.1097 13.0604 65.2136 12.818C65.3291 12.5294 65.4791 12.287 65.6753 12.0907C65.8715 11.8945 66.1139 11.7329 66.3909 11.6174C66.668 11.502 66.9796 11.4443 67.3028 11.4443V11.4558Z" fill="#6100FF"/>
  <path d="M80.8191 9.14722C79.4686 8.7201 78.0143 8.88171 77.1025 9.482C76.9178 9.60898 76.7331 9.7475 76.5715 9.90912V9.5628C76.5715 9.30884 76.3638 9.10104 76.1098 9.10104H74.2631C74.0091 9.10104 73.8014 9.30884 73.8014 9.5628V20.2986C73.8014 20.5526 74.0091 20.7604 74.2631 20.7604H76.1676C76.4215 20.7604 76.6292 20.5526 76.6292 20.2986V14.0418C76.6292 13.684 76.687 13.3492 76.8139 13.0606C76.9409 12.7605 77.1025 12.495 77.2987 12.2872C77.4949 12.0794 77.7142 11.9178 77.9797 11.8139C78.4529 11.6176 79.0185 11.6176 79.4225 11.71C79.6072 11.7446 79.7803 11.8023 79.9419 11.8716C80.0573 11.9178 80.1958 11.9178 80.3112 11.8716C80.4267 11.8139 80.519 11.71 80.5536 11.5945L81.1192 9.7475C81.1884 9.50508 81.0615 9.25112 80.8191 9.17031V9.14722Z" fill="#6100FF"/>
  <path d="M91.8654 18.1747H85.5633V6.1575C85.5633 5.90353 85.3555 5.69574 85.1016 5.69574H83.1625C82.9086 5.69574 82.7008 5.90353 82.7008 6.1575V20.3103C82.7008 20.5643 82.9086 20.7721 83.1625 20.7721H91.8769C92.1308 20.7721 92.3386 20.5643 92.3386 20.3103V18.6365C92.3386 18.3825 92.1308 18.1747 91.8769 18.1747H91.8654Z" fill="#6100FF"/>
  <path d="M101.122 9.89737C100.718 9.5626 100.234 9.30864 99.6797 9.14702C99.1372 8.98541 98.537 8.9046 97.9022 8.9046C96.9788 8.9046 96.1593 9.05467 95.4552 9.34327C94.7742 9.62032 94.1509 9.9551 93.5969 10.3476C93.3891 10.4861 93.343 10.7747 93.4815 10.9825L94.4279 12.3909C94.5664 12.5987 94.855 12.6679 95.0628 12.5178C95.536 12.2062 95.9977 11.9522 96.4363 11.7675C96.8403 11.5943 97.325 11.5135 97.8906 11.5135C98.5485 11.5135 99.0102 11.6405 99.2642 11.8945C99.5181 12.1484 99.645 12.5756 99.645 13.1643V13.3259H97.3828C95.8938 13.3259 94.7857 13.6607 94.0817 14.3187C93.3776 14.9767 93.0082 15.8425 93.0082 16.893V17.424C93.0082 18.5091 93.3776 19.3634 94.1278 19.9983C94.8435 20.6101 95.813 20.9103 97.0019 20.9103C97.5097 20.9103 97.9483 20.8641 98.3292 20.7717C98.6986 20.6794 99.0448 20.5409 99.3796 20.3677C99.495 20.2984 99.5989 20.2292 99.7143 20.1599V20.2984C99.7143 20.5524 99.9221 20.7602 100.176 20.7602H102C102.254 20.7602 102.461 20.5524 102.461 20.2984V12.7833C102.461 12.1831 102.346 11.629 102.115 11.1441C101.884 10.6593 101.561 10.2437 101.146 9.90892L101.122 9.89737ZM99.6335 15.8656V16.4659C99.6335 16.8006 99.5873 17.0777 99.5065 17.2739C99.4257 17.4586 99.2872 17.6202 99.091 17.7703C98.8486 17.955 98.5716 18.1051 98.2831 18.1974C97.6713 18.3937 96.7133 18.4399 96.1362 18.0589C95.9861 17.9666 95.8015 17.7819 95.8015 17.3086V17.0315C95.8015 16.6506 95.9053 16.3735 96.1247 16.1773C96.3555 15.9695 96.7941 15.8656 97.4174 15.8656H99.645H99.6335Z" fill="#6100FF"/>
  <path d="M109.259 8.90477C108.613 8.90477 107.99 9.02021 107.378 9.25108C107.124 9.34344 106.882 9.48196 106.662 9.63203V5.46469C106.662 5.21072 106.455 5.00293 106.201 5.00293H104.296C104.042 5.00293 103.835 5.21072 103.835 5.46469V20.2986C103.835 20.5526 104.042 20.7604 104.296 20.7604H106.143C106.397 20.7604 106.605 20.5526 106.605 20.2986V20.1485C106.732 20.2524 106.882 20.3448 107.032 20.4256C107.586 20.7488 108.313 20.9104 109.202 20.9104C109.883 20.9104 110.529 20.795 111.095 20.5641C111.683 20.3332 112.18 19.9869 112.607 19.5482C113.022 19.1096 113.345 18.567 113.576 17.9436C113.807 17.3203 113.922 16.6161 113.922 15.8311V13.9264C113.922 12.3448 113.518 11.1097 112.722 10.2323C111.914 9.34343 110.748 8.89322 109.259 8.89322V8.90477ZM109.005 11.5021C109.663 11.5021 110.16 11.7215 110.529 12.1717C110.91 12.645 111.106 13.3492 111.106 14.2496V15.5656C111.106 16.4776 110.91 17.1817 110.529 17.655C110.171 18.1053 109.663 18.3246 108.994 18.3246C108.636 18.3246 108.313 18.2669 108.024 18.1514C107.736 18.036 107.47 17.8859 107.263 17.7012C107.055 17.5281 106.905 17.3318 106.789 17.1009C106.685 16.8816 106.628 16.6738 106.628 16.466V13.7532C106.628 13.3953 106.685 13.0952 106.812 12.8181C106.939 12.5411 107.101 12.3102 107.309 12.114C107.517 11.9177 107.77 11.7677 108.059 11.6522C108.348 11.5483 108.659 11.4906 108.994 11.4906L109.005 11.5021Z" fill="#6100FF"/>
  <path d="M123.664 15.7391C123.479 15.3235 123.191 14.9541 122.821 14.654C122.464 14.3654 122.014 14.123 121.483 13.9383C120.975 13.7651 120.375 13.615 119.705 13.4881C118.724 13.3034 118.274 13.1187 118.066 13.0032C117.858 12.8878 117.766 12.7262 117.766 12.4722V12.299C117.766 12.149 117.801 11.9412 118.089 11.7449C118.274 11.618 118.678 11.4679 119.543 11.4679C120.04 11.4679 120.525 11.5371 120.963 11.6757C121.402 11.8142 121.783 11.9989 122.094 12.2298C122.198 12.3106 122.325 12.3337 122.464 12.3106C122.591 12.2875 122.706 12.2067 122.764 12.0913L123.606 10.6598C123.733 10.452 123.676 10.1865 123.479 10.048C122.902 9.64395 122.256 9.3438 121.575 9.1591C120.259 8.82433 118.585 8.80124 117.477 9.1591C116.923 9.3438 116.45 9.58623 116.081 9.88637C115.7 10.1981 115.411 10.5675 115.227 10.9946C115.042 11.4102 114.95 11.8373 114.95 12.2644V12.4953C114.95 13.0379 115.042 13.5112 115.238 13.9152C115.434 14.3192 115.723 14.6655 116.092 14.9541C116.439 15.2196 116.877 15.4505 117.374 15.6352C117.847 15.8084 118.401 15.9585 119.013 16.0854C119.509 16.1893 119.901 16.2817 120.201 16.374C120.478 16.4548 120.686 16.5472 120.836 16.6511C120.94 16.7204 121.009 16.7896 121.032 16.8473C121.079 16.9512 121.09 17.0782 121.09 17.2398V17.4014C121.09 17.6785 120.975 17.8632 120.721 18.0364C120.098 18.4289 118.689 18.4404 117.685 18.0364C117.166 17.8401 116.681 17.5746 116.231 17.2745C116.127 17.2052 115.988 17.1821 115.873 17.2052C115.746 17.2283 115.642 17.3091 115.573 17.4245L114.684 18.9137C114.569 19.1099 114.615 19.3755 114.8 19.514C115.354 19.9411 116.023 20.2759 116.808 20.5298C117.581 20.7838 118.459 20.9108 119.405 20.9108C120.074 20.9108 120.698 20.8184 121.24 20.6568C121.794 20.4837 122.267 20.2412 122.671 19.9411C123.075 19.6294 123.399 19.26 123.618 18.8329C123.837 18.4058 123.953 17.9325 123.953 17.4476V17.1937C123.953 16.6396 123.86 16.1432 123.676 15.7276L123.664 15.7391Z" fill="#6100FF"/>
</svg>